<?xml version="1.0" encoding="UTF-8"?> <svg xmlns="http://www.w3.org/2000/svg" width="144" height="24" viewBox="0 0 144 24" fill="none"> <path fill-rule="evenodd" clip-rule="evenodd" d="M15.7102 8.1818L12.4449 1.86039C12.2586 1.4996 11.7426 1.49969 11.5564 1.86054L8.29394 8.1818L1.04143 9.18757C0.624245 9.24542 0.46112 9.76158 0.769285 10.0487L5.99974 14.9215L4.75973 21.8343C4.687 22.2398 5.1083 22.5543 5.47638 22.3694L12.0005 19.0909L18.5236 22.3693C18.8917 22.5543 19.313 22.2397 19.2403 21.8343L18.0003 14.9215L23.2308 10.0486C23.5389 9.76153 23.3758 9.24539 22.9587 9.18751L15.7102 8.1818Z" fill="#FFB950"></path> <path fill-rule="evenodd" clip-rule="evenodd" d="M45.7102 8.1818L42.4449 1.86039C42.2586 1.4996 41.7426 1.49969 41.5564 1.86054L38.2939 8.1818L31.0414 9.18757C30.6242 9.24542 30.4611 9.76158 30.7693 10.0487L35.9997 14.9215L34.7597 21.8343C34.687 22.2398 35.1083 22.5543 35.4764 22.3694L42.0005 19.0909L48.5236 22.3693C48.8917 22.5543 49.313 22.2397 49.2403 21.8343L48.0003 14.9215L53.2308 10.0486C53.5389 9.76153 53.3758 9.24539 52.9587 9.18751L45.7102 8.1818Z" fill="#FFB950"></path> <path fill-rule="evenodd" clip-rule="evenodd" d="M75.7102 8.1818L72.4449 1.86039C72.2586 1.4996 71.7426 1.49969 71.5564 1.86054L68.2939 8.1818L61.0414 9.18757C60.6242 9.24542 60.4611 9.76158 60.7693 10.0487L65.9997 14.9215L64.7597 21.8343C64.687 22.2398 65.1083 22.5543 65.4764 22.3694L72.0005 19.0909L78.5236 22.3693C78.8917 22.5543 79.313 22.2397 79.2403 21.8343L78.0003 14.9215L83.2308 10.0486C83.5389 9.76153 83.3758 9.24539 82.9587 9.18751L75.7102 8.1818Z" fill="#FFB950"></path> <path fill-rule="evenodd" clip-rule="evenodd" d="M105.71 8.1818L102.445 1.86039C102.259 1.4996 101.743 1.49969 101.556 1.86054L98.2939 8.1818L91.0414 9.18757C90.6242 9.24542 90.4611 9.76158 90.7693 10.0487L95.9997 14.9215L94.7597 21.8343C94.687 22.2398 95.1083 22.5543 95.4764 22.3694L102.001 19.0909L108.524 22.3693C108.892 22.5543 109.313 22.2397 109.24 21.8343L108 14.9215L113.231 10.0486C113.539 9.76153 113.376 9.24539 112.959 9.18751L105.71 8.1818Z" fill="#FFB950"></path> <path fill-rule="evenodd" clip-rule="evenodd" d="M135.71 8.1818L132.445 1.86039C132.259 1.4996 131.743 1.49969 131.556 1.86054L128.294 8.1818L121.041 9.18757C120.624 9.24542 120.461 9.76158 120.769 10.0487L126 14.9215L124.76 21.8343C124.687 22.2398 125.108 22.5543 125.476 22.3694L132.001 19.0909L138.524 22.3693C138.892 22.5543 139.313 22.2397 139.24 21.8343L138 14.9215L143.231 10.0486C143.539 9.76153 143.376 9.24539 142.959 9.18751L135.71 8.1818Z" fill="#FFB950"></path> </svg> 