<?xml version="1.0" encoding="UTF-8"?> <svg xmlns="http://www.w3.org/2000/svg" width="36" height="36" viewBox="0 0 36 36" fill="none"> <path d="M18.0004 1.43994C8.86329 1.43994 1.44043 8.86281 1.44043 17.9999C1.44043 20.9369 2.24588 23.6778 3.58918 26.0704L1.46715 33.6459C1.43325 33.7671 1.43172 33.8951 1.46271 34.0171C1.4937 34.1391 1.55613 34.2508 1.64377 34.3412C1.73142 34.4315 1.84121 34.4973 1.96222 34.532C2.08322 34.5667 2.2112 34.569 2.3334 34.5388L10.2323 32.5813C12.5534 33.8204 15.1871 34.5599 18.0004 34.5599C27.1376 34.5599 34.5604 27.1371 34.5604 17.9999C34.5604 8.86281 27.1376 1.43994 18.0004 1.43994ZM18.0004 2.87994C26.3593 2.87994 33.1204 9.64108 33.1204 17.9999C33.1204 26.3588 26.3593 33.1199 18.0004 33.1199C15.3206 33.1199 12.8108 32.4213 10.6289 31.2004C10.4693 31.1112 10.2818 31.0861 10.1043 31.1301L3.18699 32.8443L5.04184 26.2265C5.06838 26.133 5.07571 26.0351 5.06338 25.9386C5.05105 25.8422 5.01933 25.7493 4.97012 25.6654C3.64412 23.4169 2.88043 20.8008 2.88043 17.9999C2.88043 9.64108 9.64156 2.87994 18.0004 2.87994ZM11.9831 9.35994C11.5215 9.35994 10.8624 9.53165 10.3209 10.1151C9.99566 10.4655 8.64043 11.786 8.64043 14.1074C8.64043 16.5277 10.319 18.6162 10.522 18.8845H10.5234V18.8859C10.5041 18.8606 10.781 19.2615 11.1506 19.7423C11.5202 20.2231 12.037 20.8545 12.6862 21.5381C13.9847 22.9052 15.8104 24.4853 18.0764 25.4517C19.1199 25.896 19.9431 26.1643 20.5668 26.3601C21.7227 26.723 22.7755 26.6679 23.5664 26.5513C24.1583 26.4642 24.8094 26.1799 25.4536 25.7723C26.0977 25.3646 26.7291 24.8577 27.0075 24.0876C27.2069 23.5355 27.3083 23.0253 27.345 22.6054C27.3633 22.3955 27.3656 22.2102 27.352 22.0387C27.3383 21.8672 27.3529 21.7358 27.1931 21.4734C26.8579 20.923 26.4783 20.9086 26.0821 20.7126C25.8621 20.6037 25.2355 20.2977 24.607 19.9982C23.9792 19.6991 23.4357 19.4341 23.1009 19.3148C22.8894 19.2387 22.6311 19.1292 22.2586 19.1713C21.886 19.2135 21.518 19.4824 21.3037 19.7999C21.1006 20.101 20.2831 21.066 20.0339 21.3496C20.0306 21.3476 20.0522 21.3576 19.9537 21.3088C19.6455 21.1563 19.2685 21.0266 18.7106 20.7323C18.1527 20.438 17.4549 20.0034 16.6912 19.3303V19.3288C15.5546 18.3282 14.7585 17.0719 14.5073 16.6499C14.5242 16.6298 14.5053 16.6542 14.5411 16.619L14.5425 16.6176C14.7992 16.3648 15.0266 16.0628 15.2189 15.8413C15.4914 15.5274 15.6117 15.2506 15.742 14.992C16.0017 14.4766 15.8571 13.9094 15.7068 13.611V13.6096C15.7172 13.6303 15.6256 13.4281 15.5268 13.1948C15.4278 12.9608 15.3016 12.6576 15.1668 12.3342C14.8973 11.6873 14.5963 10.9619 14.4173 10.537V10.5356C14.2065 10.0351 13.9212 9.67451 13.5482 9.50057C13.1753 9.32662 12.8458 9.37607 12.8325 9.37541H12.8311C12.5649 9.36313 12.2729 9.35994 11.9831 9.35994ZM11.9831 10.7999C12.2607 10.7999 12.5343 10.8033 12.7636 10.814C12.9993 10.8258 12.9847 10.8267 12.9393 10.8056C12.8933 10.7841 12.9558 10.7771 13.0898 11.0953C13.2651 11.5113 13.5675 12.2394 13.8379 12.8882C13.9731 13.2126 14.0997 13.5171 14.2007 13.7559C14.3018 13.9947 14.3566 14.128 14.4201 14.2551V14.2565L14.4215 14.2579C14.4838 14.3808 14.4783 14.3021 14.4567 14.3451C14.3047 14.6467 14.2841 14.7207 14.1304 14.8978C13.8964 15.1673 13.6577 15.468 13.5314 15.5924C13.4208 15.701 13.2214 15.8702 13.0968 16.2013C12.9721 16.533 13.0303 16.988 13.2304 17.3278C13.4969 17.7801 14.3748 19.209 15.7392 20.4103C16.5984 21.1677 17.3989 21.669 18.0384 22.0063C18.6779 22.3437 19.1987 22.5407 19.3153 22.5984C19.592 22.7353 19.8945 22.8417 20.2462 22.7995C20.5979 22.7572 20.9011 22.5438 21.0942 22.3256L21.0956 22.3242C21.3525 22.0329 22.1158 21.1613 22.4821 20.624C22.4977 20.6295 22.4926 20.6252 22.6143 20.669V20.6704H22.6157C22.6713 20.6902 23.3675 21.0018 23.9882 21.2976C24.609 21.5934 25.239 21.9008 25.4437 22.0021C25.7392 22.1483 25.8787 22.2435 25.9148 22.244C25.9172 22.3074 25.9197 22.376 25.9106 22.4803C25.8853 22.7694 25.808 23.1697 25.6532 23.5982C25.5774 23.808 25.1824 24.2407 24.6843 24.5559C24.1862 24.8711 23.58 25.0938 23.3554 25.1268C22.6804 25.2263 21.8788 25.2626 20.9986 24.9862C20.3882 24.7946 19.6271 24.5466 18.6417 24.127C16.6431 23.2746 14.9445 21.8242 13.7311 20.5467C13.1244 19.9079 12.6383 19.3132 12.2925 18.8634C11.9473 18.4144 11.7966 18.1807 11.6709 18.0154L11.6695 18.014C11.4464 17.719 10.0804 15.819 10.0804 14.1074C10.0804 12.2961 10.9217 11.5858 11.377 11.0953C11.616 10.8377 11.8773 10.7999 11.9831 10.7999Z" fill="black"></path> </svg> 