<?xml version="1.0" encoding="UTF-8"?> <svg xmlns="http://www.w3.org/2000/svg" width="37" height="37" viewBox="0 0 37 37" fill="none"> <g opacity="0.6"> <path fill-rule="evenodd" clip-rule="evenodd" d="M13.513 28V15.1801H9.25189V28H13.513ZM11.3824 13.4297C12.8684 13.4297 13.7932 12.4453 13.7932 11.2151C13.7655 9.95711 12.8684 9 11.4106 9C9.95302 9 9 9.95711 9 11.2151C9 12.4453 9.92467 13.4297 11.3547 13.4297H11.3824Z" fill="white"></path> <path fill-rule="evenodd" clip-rule="evenodd" d="M15.8709 28H20.132V20.8408C20.132 20.4577 20.1597 20.0749 20.2722 19.801C20.5802 19.0355 21.2814 18.2426 22.4585 18.2426C24.0004 18.2426 24.6172 19.4182 24.6172 21.1416V28H28.8779V20.6492C28.8779 16.7115 26.7757 14.8792 23.9722 14.8792C21.6735 14.8792 20.6643 16.1641 20.1037 17.0393H20.1321V15.1801H15.871C15.927 16.383 15.8709 28 15.8709 28Z" fill="white"></path> </g> </svg> 