<?xml version="1.0" encoding="UTF-8"?> <svg xmlns="http://www.w3.org/2000/svg" width="103" height="27" viewBox="0 0 103 27" fill="none"> <path d="M43.8241 19.0491L43.809 12.6987L40.7052 17.9302H39.6054L36.5167 12.8348V19.0491H34.2266V8.46512H36.2455L40.193 15.0423L44.0802 8.46512H46.0841L46.1142 19.0491H43.8241Z" fill="white"></path> <path d="M58.6975 8.46512L54.1323 19.0491H51.7216L47.1715 8.46512H49.8081L53.0173 16.0251L56.2717 8.46512H58.6975Z" fill="white"></path> <path d="M64.1433 8.46512C65.0774 8.46512 65.886 8.62136 66.569 8.93384C67.2621 9.24632 67.7945 9.68984 68.1661 10.2644C68.5377 10.839 68.7236 11.5194 68.7236 12.3056C68.7236 13.0818 68.5377 13.7622 68.1661 14.3468C67.7945 14.9214 67.2621 15.3649 66.569 15.6774C65.886 15.9798 65.0774 16.131 64.1433 16.131H62.0189V19.0491H59.5781V8.46512H64.1433ZM64.0077 14.1351C64.7409 14.1351 65.2984 13.9789 65.6801 13.6664C66.0618 13.3438 66.2526 12.8902 66.2526 12.3056C66.2526 11.7109 66.0618 11.2573 65.6801 10.9448C65.2984 10.6222 64.7409 10.461 64.0077 10.461H62.0189V14.1351H64.0077Z" fill="white"></path> <path d="M74.8802 8.46512H77.321V17.0533H82.6094V19.0491H74.8802V8.46512Z" fill="white"></path> <path d="M87.1652 10.7936C88.4208 10.7936 89.385 11.096 90.058 11.7008C90.731 12.2955 91.0675 13.1977 91.0675 14.4073V19.0491H88.8678V18.0361C88.4258 18.7921 87.6021 19.1701 86.3968 19.1701C85.7741 19.1701 85.2317 19.0642 84.7696 18.8526C84.3176 18.6409 83.9711 18.3486 83.73 17.9756C83.4889 17.6026 83.3684 17.1793 83.3684 16.7055C83.3684 15.9495 83.6497 15.3548 84.2121 14.9214C84.7847 14.4879 85.6636 14.2712 86.8488 14.2712H88.7171C88.7171 13.7571 88.5614 13.364 88.25 13.0918C87.9386 12.8096 87.4716 12.6685 86.8488 12.6685C86.4169 12.6685 85.99 12.739 85.5681 12.8802C85.1563 13.0112 84.8048 13.1926 84.5135 13.4245L83.6697 11.7764C84.1117 11.4639 84.639 11.222 85.2517 11.0506C85.8745 10.8793 86.5123 10.7936 87.1652 10.7936ZM86.9844 17.5825C87.3862 17.5825 87.7428 17.4918 88.0542 17.3103C88.3655 17.1188 88.5865 16.8416 88.7171 16.4787V15.6471H87.1049C86.1407 15.6471 85.6585 15.9646 85.6585 16.5997C85.6585 16.9021 85.7741 17.144 86.0051 17.3254C86.2461 17.4968 86.5726 17.5825 86.9844 17.5825Z" fill="white"></path> <path d="M97.9859 10.7936C98.7393 10.7936 99.4223 10.97 100.035 11.3228C100.658 11.6655 101.145 12.1544 101.496 12.7894C101.848 13.4144 102.024 14.1452 102.024 14.9818C102.024 15.8185 101.848 16.5543 101.496 17.1894C101.145 17.8143 100.658 18.3032 100.035 18.656C99.4223 18.9987 98.7393 19.1701 97.9859 19.1701C96.871 19.1701 96.0222 18.8173 95.4397 18.1117V19.0491H93.1947V7.83008H95.5451V11.7764C96.1378 11.1212 96.9514 10.7936 97.9859 10.7936ZM97.5791 17.2347C98.1818 17.2347 98.674 17.0331 99.0557 16.6299C99.4474 16.2166 99.6433 15.6673 99.6433 14.9818C99.6433 14.2964 99.4474 13.7521 99.0557 13.3489C98.674 12.9356 98.1818 12.729 97.5791 12.729C96.9765 12.729 96.4793 12.9356 96.0875 13.3489C95.7058 13.7521 95.515 14.2964 95.515 14.9818C95.515 15.6673 95.7058 16.2166 96.0875 16.6299C96.4793 17.0331 96.9765 17.2347 97.5791 17.2347Z" fill="white"></path> <path d="M22.9647 23.0459C17.7112 28.318 9.19362 28.318 3.94012 23.0459C-1.31337 17.7739 -1.31337 9.22614 3.94012 3.95406C9.19362 -1.31802 17.7112 -1.31802 22.9647 3.95406C28.2182 9.22614 28.2182 17.7739 22.9647 23.0459Z" fill="url(#paint0_linear_307_289)"></path> <path d="M18.3434 13.4378C17.898 13.6306 17.4071 13.7374 16.8912 13.7374C16.6061 13.7374 16.3285 13.7048 16.0621 13.643L10.5506 20.3722L10.2842 20.1588L15.7048 13.5406C14.6467 13.178 13.8064 12.3437 13.4328 11.2876L6.85276 16.7152L6.64007 16.4479L13.327 10.9322C13.2587 10.6513 13.2224 10.3577 13.2224 10.0556C13.2224 9.54415 13.3263 9.05707 13.5141 8.61444L2.43555 14.7688L14.277 7.47234C14.9425 6.79421 15.8679 6.37378 16.8912 6.37378C18.9175 6.37378 20.5601 8.02219 20.5601 10.0556C20.5601 11.0658 20.1547 11.981 19.4982 12.6463L12.2026 24.5703L18.3434 13.4378Z" fill="#262626" stroke="#262626" stroke-width="0.2" stroke-linecap="round" stroke-linejoin="round"></path> <defs> <linearGradient id="paint0_linear_307_289" x1="26.9048" y1="0" x2="26.9048" y2="32.805" gradientUnits="userSpaceOnUse"> <stop stop-color="#00DFED"></stop> <stop offset="1" stop-color="#00FF85"></stop> </linearGradient> </defs> </svg> 