<?xml version="1.0" encoding="UTF-8"?> <svg xmlns="http://www.w3.org/2000/svg" width="201" height="53" viewBox="0 0 201 53" fill="none"> <path d="M85.9309 37.3927L85.9014 24.9271L79.8156 35.1964H77.659L71.6028 25.1942V37.3927H67.1123V16.6167H71.071L78.8112 29.5275L86.4331 16.6167H90.3623L90.4214 37.3927H85.9309Z" fill="white"></path> <path d="M115.095 16.6167L106.143 37.3927H101.416L92.4944 16.6167H97.6644L103.957 31.4567L110.338 16.6167H115.095Z" fill="white"></path> <path d="M125.773 16.6167C127.604 16.6167 129.19 16.9234 130.529 17.5368C131.888 18.1501 132.932 19.0208 133.66 20.1486C134.389 21.2764 134.753 22.612 134.753 24.1554C134.753 25.679 134.389 27.0146 133.66 28.1622C132.932 29.29 131.888 30.1607 130.529 30.774C129.19 31.3676 127.604 31.6644 125.773 31.6644H121.607V37.3927H116.821V16.6167H125.773ZM125.507 27.7467C126.944 27.7467 128.037 27.44 128.786 26.8266C129.534 26.1934 129.908 25.303 129.908 24.1554C129.908 22.988 129.534 22.0976 128.786 21.4842C128.037 20.851 126.944 20.5344 125.507 20.5344H121.607V27.7467H125.507Z" fill="white"></path> <path d="M146.825 16.6167H151.611V33.4749H161.981V37.3927H146.825V16.6167Z" fill="white"></path> <path d="M170.914 21.1874C173.375 21.1874 175.266 21.781 176.586 22.9682C177.905 24.1356 178.565 25.9065 178.565 28.2809V37.3927H174.252V35.4041C173.385 36.8881 171.77 37.6301 169.407 37.6301C168.186 37.6301 167.122 37.4224 166.216 37.0068C165.33 36.5913 164.651 36.0175 164.178 35.2854C163.705 34.5533 163.469 33.7223 163.469 32.7923C163.469 31.3083 164.02 30.1409 165.123 29.29C166.246 28.4392 167.969 28.0138 170.293 28.0138H173.956C173.956 27.0047 173.651 26.233 173.041 25.6988C172.43 25.1447 171.514 24.8677 170.293 24.8677C169.446 24.8677 168.609 25.0062 167.782 25.2832C166.975 25.5405 166.285 25.8966 165.714 26.3517L164.06 23.1166C164.926 22.5032 165.96 22.0283 167.162 21.692C168.383 21.3556 169.633 21.1874 170.914 21.1874ZM170.559 34.5137C171.347 34.5137 172.046 34.3356 172.657 33.9795C173.267 33.6035 173.7 33.0594 173.956 32.3471V30.7147H170.795C168.905 30.7147 167.959 31.338 167.959 32.5845C167.959 33.1781 168.186 33.653 168.639 34.0092C169.111 34.3455 169.752 34.5137 170.559 34.5137Z" fill="white"></path> <path d="M192.131 21.1874C193.608 21.1874 194.947 21.5337 196.148 22.2262C197.37 22.8989 198.325 23.8586 199.014 25.1052C199.703 26.3319 200.048 27.7665 200.048 29.4088C200.048 31.0511 199.703 32.4955 199.014 33.742C198.325 34.9688 197.37 35.9285 196.148 36.621C194.947 37.2937 193.608 37.6301 192.131 37.6301C189.945 37.6301 188.28 36.9376 187.138 35.5525V37.3927H182.736V15.3701H187.345V23.1166C188.507 21.8305 190.102 21.1874 192.131 21.1874ZM191.333 33.8311C192.515 33.8311 193.48 33.4353 194.228 32.6439C194.996 31.8326 195.38 30.7543 195.38 29.4088C195.38 28.0633 194.996 26.9948 194.228 26.2033C193.48 25.3921 192.515 24.9864 191.333 24.9864C190.151 24.9864 189.176 25.3921 188.408 26.2033C187.66 26.9948 187.286 28.0633 187.286 29.4088C187.286 30.7543 187.66 31.8326 188.408 32.6439C189.176 33.4353 190.151 33.8311 191.333 33.8311Z" fill="white"></path> <path d="M45.0289 45.2383C34.7279 55.5872 18.0267 55.5872 7.72573 45.2383C-2.57524 34.8894 -2.57524 18.1106 7.72573 7.76167C18.0267 -2.58722 34.7279 -2.58722 45.0289 7.76167C55.3298 18.1106 55.3298 34.8894 45.0289 45.2383Z" fill="white"></path> <path d="M35.9662 26.3778C35.093 26.7563 34.1303 26.966 33.1189 26.966C32.5598 26.966 32.0156 26.9019 31.4931 26.7807L20.6862 39.9899L20.164 39.5709L30.7925 26.5797C28.7179 25.8678 27.0703 24.2302 26.3377 22.1572L13.4356 32.8112L13.0186 32.2866L26.1303 21.4595C25.9962 20.908 25.9251 20.3317 25.9251 19.7387C25.9251 18.7348 26.1289 17.7787 26.4971 16.9098L4.77441 28.9905L27.993 14.6679C29.2978 13.3368 31.1124 12.5115 33.1189 12.5115C37.092 12.5115 40.3127 15.7472 40.3127 19.7387C40.3127 21.7218 39.5178 23.5183 38.2305 24.8242L23.9254 48.2306L35.9662 26.3778Z" fill="#262626"></path> </svg> 